<?xml version="1.0" encoding="UTF-8" standalone="no"?> <!-- Created with Vectornator for iOS (http://vectornator.io/) --><!DOCTYPE svg PUBLIC "-//W3C//DTD SVG 1.1//EN" "http://www.w3.org/Graphics/SVG/1.1/DTD/svg11.dtd">
<svg style="fill-rule:evenodd;clip-rule:evenodd;stroke-linecap:round;stroke-linejoin:round;" xmlns:vectornator="http://vectornator.io" xmlns:xlink="http://www.w3.org/1999/xlink" xmlns="http://www.w3.org/2000/svg" xml:space="preserve" version="1.1" viewBox="0 0 132 36">
<metadata>
<vectornator:setting key="DisplayWhiteBackground" value="0"/>
<vectornator:setting key="RulersVisible" value="1"/>
<vectornator:setting key="GridSpacing" value="1"/>
<vectornator:setting key="Units" value="Pixels"/>
<vectornator:setting key="DynamicGuides" value="0"/>
<vectornator:setting key="SnapToPoints" value="0"/>
<vectornator:setting key="CMYKEnabledKey" value="0"/>
<vectornator:setting key="SnapToGrid" value="1"/>
<vectornator:setting key="SnapToGuides" value="1"/>
<vectornator:setting key="ShowGrid" value="1"/>
<vectornator:setting key="SnapToEdges" value="0"/>
</metadata>
<defs/>
<g id="Layer 1" vectornator:layerName="Layer 1">
<path d="M0+0L132+0L132+36L0+36L0+0Z" opacity="0" fill="#2980b9"/>
<path d="M2+2L2+34L36+34L36+2L2+2ZM4+4L34+4L34+32L4+32C4+29.4897+4+6.51027+4+4ZM8.4375+5C8.26563+5+8.13021+5.04948+8.03125+5.15625C7.93229+5.26302+7.89063+5.44271+7.875+5.65625L7.84375+6.25C7.01562+6.3125+6.3724+6.52604+5.90625+6.9375C5.4401+7.34896+5.1875+7.89062+5.1875+8.5625C5.1875+9.07813+5.34375+9.55469+5.65625+9.96875C5.96875+10.3828+6.41146+10.6927+6.9375+10.875L8.28125+11.3125C9.01563+11.5677+9.50521+11.7943+9.71875+12C9.93229+12.2057+10.0313+12.4896+10.0312+12.8125C10.0312+13.1771+9.89323+13.4583+9.59375+13.6875C9.29427+13.9167+8.89583+14.0312+8.40625+14.0312C7.97917+14.0312+7.5599+13.9714+7.15625+13.8125C6.7526+13.6536+6.48438+13.474+6.375+13.2812C6.34896+13.2344+6.31771+13.1563+6.28125+13.0312C6.14583+12.625+5.92708+12.4062+5.625+12.4062C5.43229+12.4062+5.27344+12.474+5.15625+12.5938C5.03906+12.7135+5+12.875+5+13.0625L5+14.125C5+14.3646+5.06771+14.5495+5.1875+14.6875C5.30729+14.8255+5.44792+14.9062+5.65625+14.9062C5.77604+14.9062+5.88021+14.8698+5.96875+14.8125C6.05729+14.7552+6.14583+14.6823+6.21875+14.5625C6.42188+14.7031+6.61458+14.8203+6.8125+14.9062C7.01042+14.9922+7.22396+15.0573+7.4375+15.0938L7.34375+16.8438L7.34375+17C7.34375+17.2188+7.39062+17.3698+7.46875+17.4688C7.54688+17.5677+7.67187+17.625+7.84375+17.625C8.05208+17.625+8.1875+17.5443+8.28125+17.4375C8.375+17.3307+8.42708+17.1719+8.4375+16.9375L8.53125+15.125C9.40625+15.0729+10.1172+14.8385+10.625+14.4062C11.1328+13.974+11.375+13.401+11.375+12.7188C11.375+12.1198+11.2005+11.6172+10.8438+11.2188C10.487+10.8203+9.91667+10.526+9.15625+10.2812L7.65625+9.78125C7.27083+9.65625+6.97917+9.46615+6.78125+9.25C6.58333+9.03385+6.5+8.79688+6.5+8.5C6.5+8.13021+6.65104+7.81771+6.96875+7.59375C7.28646+7.36979+7.72396+7.25+8.25+7.25C8.63021+7.25+8.9375+7.31771+9.21875+7.4375C9.5+7.55729+9.70833+7.72917+9.8125+7.9375C9.83333+7.97917+9.84375+8.04167+9.875+8.125C10.0208+8.44792+10.2396+8.59375+10.5+8.59375C10.6771+8.59375+10.8125+8.53906+10.9062+8.4375C11+8.33594+11.0312+8.19271+11.0312+8L11.0312+7.0625C11.0312+6.82812+11.0156+6.65885+10.9375+6.5625C10.8594+6.46615+10.7083+6.40625+10.5312+6.40625C10.4375+6.40625+10.3594+6.42448+10.2812+6.46875C10.2031+6.51302+10.1406+6.59375+10.0625+6.6875C9.89062+6.60417+9.6849+6.53385+9.5+6.46875C9.3151+6.40365+9.13021+6.33333+8.9375+6.28125L9+5.65625L9+5.5625C9+5.38021+8.9375+5.2526+8.84375+5.15625C8.75+5.0599+8.61458+5+8.4375+5ZM50.25+8C48.0703+8+46.4063+8.50781+45.2812+9.53125C44.1562+10.5547+43.5938+11.8594+43.5938+13.4062C43.5938+15.1016+44.1797+16.3281+45.3438+17.125C46.0313+17.6016+47.2656+18.0625+49.0625+18.4688L50.9062+18.875C51.9766+19.1094+52.75+19.3828+53.25+19.6875C53.75+20+54+20.4297+54+21C54+21.9766+53.5078+22.6406+52.5+23C51.9687+23.1875+51.2578+23.2812+50.4062+23.2812C48.9844+23.2812+47.9922+22.9297+47.4062+22.2188C47.0859+21.8281+46.8594+21.2266+46.75+20.4375L43.3125+20.4375C43.3125+22.2344+43.9609+23.6602+45.25+24.6875C46.5391+25.7148+48.3125+26.2188+50.5625+26.2188C52.7656+26.2188+54.4805+25.6992+55.6875+24.6562C56.8945+23.6133+57.5+22.2969+57.5+20.7188C57.5+19.1797+56.9688+18+55.9375+17.1875C55.2734+16.6641+54.3047+16.25+53+15.9375L50+15.2188C48.8516+14.9453+48.1016+14.7344+47.75+14.5312C47.2031+14.2266+46.9375+13.7422+46.9375+13.125C46.9375+12.4531+47.2266+11.9375+47.7812+11.5625C48.3359+11.1875+49.0703+11+50+11C50.8359+11+51.5312+11.1484+52.0938+11.4375C52.9375+11.875+53.4062+12.6172+53.4688+13.6562L56.9375+13.6562C56.875+11.8203+56.1914+10.4023+54.9062+9.4375C53.6211+8.47266+52.0703+8+50.25+8ZM90.9688+8.5L90.9688+25.7812L94.3125+25.7812L94.3125+8.5L90.9688+8.5ZM98.625+8.5L98.625+25.7812L101.969+25.7812L101.969+8.5L98.625+8.5ZM106.594+8.5L106.594+25.7812L110.156+25.7812L110.156+19.5625L113.844+19.5625C115.758+19.5625+117.219+19.1563+118.25+18.3125C119.281+17.4688+119.812+16.0078+119.812+13.9688C119.812+12.1016+119.281+10.7344+118.25+9.84375C117.219+8.95312+115.828+8.5+114.094+8.5L106.594+8.5ZM60.9062+8.5625L60.9062+25.7812L64.25+25.7812L64.25+18.875C64.25+17.7813+64.4805+16.9336+64.9375+16.3438C65.3945+15.7539+66.0547+15.4688+66.9375+15.4688C67.7891+15.4688+68.3516+15.75+68.6562+16.3438C68.8906+16.7656+69.0312+17.3125+69.0312+18L69.0312+25.7812L72.4375+25.7812L72.4375+18.2812C72.4375+17.1406+72.3906+16.3164+72.3125+15.8125C72.2344+15.3086+72.0078+14.8203+71.6562+14.3438C71.2422+13.7812+70.7383+13.3672+70.0938+13.0938C69.4492+12.8203+68.7266+12.6875+67.9375+12.6875C67.2344+12.6875+66.543+12.832+65.9062+13.125C65.2695+13.418+64.7344+13.9141+64.25+14.6562L64.25+8.5625L60.9062+8.5625ZM110.156+11.5L113.531+11.5C114.383+11.5+115.059+11.7109+115.531+12.0938C116.004+12.4766+116.219+13.1016+116.219+14C116.219+14.8984+116.004+15.5547+115.531+15.9688C115.059+16.3828+114.383+16.5938+113.531+16.5938L110.156+16.5938L110.156+11.5ZM81.5938+12.6562C79.8047+12.6562+78.3398+13.2578+77.2188+14.4375C76.0977+15.6172+75.5312+17.3203+75.5312+19.5312C75.5312+21.8906+76.1641+23.5781+77.4062+24.625C78.6484+25.6719+80.0937+26.1875+81.7188+26.1875C83.6875+26.1875+85.2187+25.5859+86.3125+24.3438C87.0156+23.5625+87.3828+22.7891+87.4688+22.0312L84.0625+22.0312C83.8828+22.4063+83.6719+22.6953+83.4375+22.9062C83.0078+23.2969+82.4688+23.5+81.7812+23.5C81.1328+23.5+80.5859+23.3203+80.125+23C79.3672+22.4844+78.9531+21.5938+78.9062+20.3125L87.6562+20.3125C87.6719+19.2109+87.6172+18.3672+87.5312+17.7812C87.3828+16.7812+87.0625+15.9141+86.5625+15.1562C86.0078+14.2969+85.3203+13.6484+84.4688+13.25C83.6172+12.8516+82.6563+12.6562+81.5938+12.6562ZM81.5938+15.4062C82.3047+15.4062+82.8945+15.6367+83.375+16.0938C83.8555+16.5508+84.1328+17.2422+84.1875+18.125L79+18.125C79.1094+17.2969+79.3555+16.6406+79.7812+16.1562C80.207+15.6719+80.8203+15.4062+81.5938+15.4062ZM12.9062+18.5L12.9062+19.4375L22.7812+19.4375L22.7812+18.5L12.9062+18.5Z" opacity="1" fill="#ffffff"/>
</g>
</svg>
